<svg width="115" height="24" viewBox="0 0 115 24" fill="none" xmlns="http://www.w3.org/2000/svg">
<path fill-rule="evenodd" clip-rule="evenodd" d="M2.50188 19.49H0.0818787V4.52999H2.41965L7.23188 16.2803L12.0441 4.52999H14.4219V19.49H12.0019V11.78C12.0019 11.2979 12.0086 10.8812 12.0221 10.5304C12.0247 10.4622 12.0273 10.3955 12.0299 10.3303L8.32036 19.49H6.14335L2.46052 10.3882C2.46096 10.4096 2.46139 10.4313 2.46179 10.4531C2.48855 11.1766 2.50188 12.0458 2.50188 13.06V19.49ZM2.11188 8.85999C2.14476 9.0737 2.17003 9.35834 2.18771 9.71392C2.19871 9.93515 2.20676 10.1838 2.21188 10.46C2.23855 11.18 2.25188 12.0467 2.25188 13.06V19.24H0.331879V4.77999H2.25188L7.23188 16.94L12.2119 4.77999H14.1719V19.24H12.2519V11.78C12.2519 11.3 12.2585 10.8867 12.2719 10.54C12.2849 10.2003 12.298 9.89901 12.3111 9.63613C12.3113 9.63074 12.3116 9.62535 12.3119 9.61999C12.3252 9.33999 12.3452 9.07332 12.3719 8.81999L8.15188 19.24H6.31188L2.11188 8.85999ZM19.1154 19.49H16.5415L22.0041 4.52999H24.5335L30.0168 19.49H27.4234L26.1234 15.89H20.3954L19.1154 19.49ZM20.2189 15.64H23.2589H26.2989L27.5989 19.24H29.6589L24.3589 4.77999H22.1789L16.8989 19.24H18.9389L20.2189 15.64ZM23.2538 7.98555L21.176 13.69H25.3607L23.2605 7.97614L23.2591 7.9709C23.2574 7.97574 23.2556 7.98071 23.2538 7.98555ZM23.13 7.56208C23.1321 7.55505 23.1341 7.54803 23.1361 7.541C23.1369 7.53851 23.1376 7.53602 23.1383 7.53353C23.1454 7.50902 23.1522 7.4845 23.1589 7.45999L23.2589 7.05999C23.2722 7.16666 23.3056 7.29999 23.3589 7.45999C23.3656 7.47829 23.3721 7.4966 23.3786 7.5149L23.3805 7.52043C23.3845 7.53169 23.3884 7.54296 23.3923 7.55423C23.4319 7.66948 23.4675 7.78474 23.4989 7.89999L25.7189 13.94H20.8189L23.0189 7.89999C23.0599 7.78736 23.0969 7.67471 23.13 7.56208ZM36.3353 13.36V19.24H34.3753V13.36L29.4753 4.77999H31.6753L34.8953 10.56C34.9887 10.7333 35.0687 10.8933 35.1353 11.04C35.1699 11.1034 35.2045 11.1693 35.2391 11.2377C35.2845 11.3275 35.3299 11.4216 35.3753 11.52C35.4401 11.4035 35.4859 11.3058 35.5129 11.227C35.5138 11.2246 35.5145 11.2223 35.5153 11.22L35.6353 10.94C35.6887 10.8467 35.762 10.72 35.8553 10.56L39.0553 4.77999H41.1953L36.3353 13.36ZM35.638 10.4365L38.908 4.52999H41.6242L36.5853 13.4259V19.49H34.1253V13.4263L29.0447 4.52999H31.8222L35.1155 10.4415C35.2091 10.6155 35.2905 10.7778 35.3591 10.9283C35.3609 10.9314 35.3626 10.9346 35.3643 10.9377L35.4112 10.8284L35.4183 10.816C35.4719 10.7222 35.5451 10.5956 35.638 10.4365ZM46.0942 19.49H43.6342V4.52999H45.9786L52.9942 15.133V4.52999H55.4542V19.49H53.1099L46.0942 8.887V19.49ZM45.8442 8.05611V19.24H43.8842V4.77999H45.8442L53.2442 15.9639V4.77999H55.2042V19.24H53.2442L45.8442 8.05611ZM69.1808 18.7541C68.0969 19.4072 66.8444 19.73 65.4317 19.73C64.0446 19.73 62.7997 19.4067 61.7039 18.7548L61.7007 18.7529C60.621 18.0885 59.777 17.1744 59.1703 16.016C58.5619 14.8546 58.2617 13.5135 58.2617 12C58.2617 10.4994 58.5621 9.16512 59.1703 8.00399L59.1714 8.00193C59.7914 6.84462 60.6415 5.9312 61.7207 5.26708C62.8045 4.60014 64.0509 4.26999 65.4517 4.26999C66.8654 4.26999 68.1186 4.5999 69.2028 5.26708C70.2822 5.93137 71.1261 6.84521 71.7328 8.00323C72.3546 9.16449 72.6617 10.4991 72.6617 12C72.6617 13.5013 72.3544 14.8423 71.733 16.0164C71.1258 17.1754 70.2739 18.09 69.1808 18.7541ZM71.5117 8.11999C70.9251 6.99999 70.1117 6.11999 69.0717 5.47999C68.0317 4.83999 66.8251 4.51999 65.4517 4.51999C64.0917 4.51999 62.8917 4.83999 61.8517 5.47999C60.8117 6.11999 59.9917 6.99999 59.3917 8.11999C58.8051 9.23999 58.5117 10.5333 58.5117 12C58.5117 13.48 58.8051 14.78 59.3917 15.9C59.9784 17.02 60.7917 17.9 61.8317 18.54C62.8851 19.1667 64.0851 19.48 65.4317 19.48C66.8051 19.48 68.0117 19.1667 69.0517 18.54C70.1051 17.9 70.9251 17.02 71.5117 15.9C72.1117 14.7667 72.4117 13.4667 72.4117 12C72.4117 10.5333 72.1117 9.23999 71.5117 8.11999ZM69.5074 9.17037L69.506 9.16748C69.125 8.36728 68.5895 7.7587 67.9003 7.33264L67.8975 7.33092C67.2095 6.89309 66.3974 6.66999 65.4517 6.66999C64.5201 6.66999 63.7145 6.89274 63.026 7.33091L63.0232 7.33266C62.3336 7.75892 61.7911 8.36803 61.3967 9.16897C61.0161 9.96892 60.8217 10.9104 60.8217 12C60.8217 13.0896 61.0161 14.0311 61.3967 14.831C61.7914 15.6325 62.3347 16.2492 63.026 16.6891C63.7145 17.1272 64.5201 17.35 65.4517 17.35C66.3967 17.35 67.2083 17.1272 67.896 16.6901C68.588 16.2368 69.1247 15.6133 69.506 14.8125L69.5074 14.8096C69.901 14.0097 70.1017 13.0753 70.1017 12C70.1017 10.9108 69.9009 9.96992 69.5074 9.17037ZM68.0317 16.9C68.7651 16.42 69.3317 15.76 69.7317 14.92C70.1451 14.08 70.3517 13.1067 70.3517 12C70.3517 10.88 70.1451 9.89999 69.7317 9.05999C69.3317 8.21999 68.7651 7.57332 68.0317 7.11999C67.2984 6.65332 66.4384 6.41999 65.4517 6.41999C64.4784 6.41999 63.6251 6.65332 62.8917 7.11999C62.1584 7.57332 61.5851 8.21999 61.1717 9.05999C60.7717 9.89999 60.5717 10.88 60.5717 12C60.5717 13.12 60.7717 14.1 61.1717 14.94C61.5851 15.78 62.1584 16.4333 62.8917 16.9C63.6251 17.3667 64.4784 17.6 65.4517 17.6C66.4384 17.6 67.2984 17.3667 68.0317 16.9ZM85.5276 18.7541C84.4438 19.4072 83.1913 19.73 81.7786 19.73C80.3915 19.73 79.1465 19.4067 78.0508 18.7548L78.0476 18.7529C76.9679 18.0885 76.1239 17.1744 75.5171 16.016C74.9088 14.8546 74.6086 13.5135 74.6086 12C74.6086 10.4994 74.9089 9.16512 75.5171 8.00399L75.5182 8.00193C76.1382 6.84462 76.9884 5.9312 78.0676 5.26708C79.1514 4.60014 80.3978 4.26999 81.7986 4.26999C83.2123 4.26999 84.4655 4.5999 85.5496 5.26708C86.629 5.93132 87.4728 6.84507 88.0795 8.00296C88.7014 9.16428 89.0086 10.499 89.0086 12C89.0086 13.5013 88.7013 14.8423 88.0798 16.0164C87.4727 17.1754 86.6207 18.09 85.5276 18.7541ZM85.8543 9.17037L85.8529 9.16748C85.4718 8.36728 84.9364 7.7587 84.2472 7.33264L84.2444 7.33092C83.5564 6.89309 82.7443 6.66999 81.7986 6.66999C80.867 6.66999 80.0614 6.89275 79.3728 7.33091L79.3701 7.33266C78.6804 7.75896 78.1379 8.36815 77.7435 9.1692C77.363 9.9691 77.1686 10.9105 77.1686 12C77.1686 13.0895 77.363 14.0309 77.7435 14.8308C78.1382 15.6324 78.6815 16.2491 79.3728 16.6891C80.0614 17.1272 80.867 17.35 81.7986 17.35C82.7437 17.35 83.5554 17.1272 84.2431 16.6899C84.935 16.2366 85.4716 15.6132 85.8529 14.8125L85.8543 14.8096C86.2479 14.0097 86.4486 13.0753 86.4486 12C86.4486 10.9108 86.2477 9.96993 85.8543 9.17037ZM84.3786 16.9C83.6453 17.3667 82.7853 17.6 81.7986 17.6C80.8253 17.6 79.9719 17.3667 79.2386 16.9C78.5053 16.4333 77.9319 15.78 77.5186 14.94C77.1186 14.1 76.9186 13.12 76.9186 12C76.9186 10.88 77.1186 9.89999 77.5186 9.05999C77.9319 8.21999 78.5053 7.57332 79.2386 7.11999C79.9719 6.65332 80.8253 6.41999 81.7986 6.41999C82.7853 6.41999 83.6453 6.65332 84.3786 7.11999C85.1119 7.57332 85.6786 8.21999 86.0786 9.05999C86.4919 9.89999 86.6986 10.88 86.6986 12C86.6986 13.1067 86.4919 14.08 86.0786 14.92C85.6786 15.76 85.1119 16.42 84.3786 16.9ZM96.4777 6.57999V19.24H94.5177V6.57999H90.1577V4.77999H100.818V6.57999H96.4777ZM94.2677 6.82999H89.9077V4.52999H101.068V6.82999H96.7277V19.49H94.2677V6.82999ZM105.798 19.49H103.338V4.52999H105.798V10.75H112.458V4.52999H114.918V19.49H112.458V13.07H105.798V19.49ZM112.708 12.82V19.24H114.668V4.77999H112.708V11H105.548V4.77999H103.588V19.24H105.548V12.82H112.708ZM87.8586 15.9C88.4586 14.7667 88.7586 13.4667 88.7586 12C88.7586 10.5333 88.4586 9.23999 87.8586 8.11999C87.2719 6.99999 86.4586 6.11999 85.4186 5.47999C84.3786 4.83999 83.1719 4.51999 81.7986 4.51999C80.4386 4.51999 79.2386 4.83999 78.1986 5.47999C77.1586 6.11999 76.3386 6.99999 75.7386 8.11999C75.1519 9.23999 74.8586 10.5333 74.8586 12C74.8586 13.48 75.1519 14.78 75.7386 15.9C76.3253 17.02 77.1386 17.9 78.1786 18.54C79.2319 19.1667 80.4319 19.48 81.7786 19.48C83.1519 19.48 84.3586 19.1667 85.3986 18.54C86.4519 17.9 87.2719 17.02 87.8586 15.9Z" fill="#09111F"/>
<path d="M2.11188 8.85999C2.14476 9.0737 2.17003 9.35834 2.18771 9.71392C2.19871 9.93515 2.20676 10.1838 2.21188 10.46C2.23855 11.18 2.25188 12.0467 2.25188 13.06V19.24H0.331879V4.77999H2.25188L7.23188 16.94L12.2119 4.77999H14.1719V19.24H12.2519V11.78C12.2519 11.3 12.2585 10.8867 12.2719 10.54C12.2849 10.2003 12.298 9.89901 12.3111 9.63613L12.3119 9.61999C12.3252 9.33999 12.3452 9.07332 12.3719 8.81999L8.15188 19.24H6.31188L2.11188 8.85999Z" fill="#09111F"/>
<path fill-rule="evenodd" clip-rule="evenodd" d="M27.5989 19.24L26.2989 15.64H23.2589H20.2189L18.9389 19.24H16.8989L22.1789 4.77999H24.3589L29.6589 19.24H27.5989ZM23.13 7.56208L23.1361 7.541L23.1383 7.53353C23.1454 7.50902 23.1522 7.4845 23.1589 7.45999L23.2589 7.05999C23.2722 7.16666 23.3056 7.29999 23.3589 7.45999L23.3786 7.5149L23.3805 7.52043L23.3923 7.55423C23.4319 7.66948 23.4675 7.78474 23.4989 7.89999L25.7189 13.94H20.8189L23.0189 7.89999C23.0599 7.78736 23.0969 7.67471 23.13 7.56208Z" fill="#09111F"/>
<path d="M34.8953 10.56L31.6753 4.77999H29.4753L34.3753 13.36V19.24H36.3353V13.36L41.1953 4.77999H39.0553L35.8553 10.56C35.762 10.72 35.6887 10.8467 35.6353 10.94L35.5153 11.22L35.5129 11.227C35.4859 11.3058 35.4401 11.4035 35.3753 11.52C35.3299 11.4216 35.2845 11.3275 35.2391 11.2377C35.2045 11.1693 35.1699 11.1034 35.1353 11.04C35.0687 10.8933 34.9887 10.7333 34.8953 10.56Z" fill="#09111F"/>
<path d="M53.2442 19.24L45.8442 8.05611V19.24H43.8842V4.77999H45.8442L53.2442 15.9639V4.77999H55.2042V19.24H53.2442Z" fill="#09111F"/>
<path fill-rule="evenodd" clip-rule="evenodd" d="M71.5117 8.11999C70.9251 6.99999 70.1117 6.11999 69.0717 5.47999C68.0317 4.83999 66.8251 4.51999 65.4517 4.51999C64.0917 4.51999 62.8917 4.83999 61.8517 5.47999C60.8117 6.11999 59.9917 6.99999 59.3917 8.11999C58.8051 9.23999 58.5117 10.5333 58.5117 12C58.5117 13.48 58.8051 14.78 59.3917 15.9C59.9784 17.02 60.7917 17.9 61.8317 18.54C62.8851 19.1667 64.0851 19.48 65.4317 19.48C66.8051 19.48 68.0117 19.1667 69.0517 18.54C70.1051 17.9 70.9251 17.02 71.5117 15.9C72.1117 14.7667 72.4117 13.4667 72.4117 12C72.4117 10.5333 72.1117 9.23999 71.5117 8.11999ZM68.0317 16.9C68.7651 16.42 69.3317 15.76 69.7317 14.92C70.1451 14.08 70.3517 13.1067 70.3517 12C70.3517 10.88 70.1451 9.89999 69.7317 9.05999C69.3317 8.21999 68.7651 7.57332 68.0317 7.11999C67.2984 6.65332 66.4384 6.41999 65.4517 6.41999C64.4784 6.41999 63.6251 6.65332 62.8917 7.11999C62.1584 7.57332 61.5851 8.21999 61.1717 9.05999C60.7717 9.89999 60.5717 10.88 60.5717 12C60.5717 13.12 60.7717 14.1 61.1717 14.94C61.5851 15.78 62.1584 16.4333 62.8917 16.9C63.6251 17.3667 64.4784 17.6 65.4517 17.6C66.4384 17.6 67.2984 17.3667 68.0317 16.9Z" fill="#09111F"/>
<path fill-rule="evenodd" clip-rule="evenodd" d="M88.7586 12C88.7586 13.4667 88.4586 14.7667 87.8586 15.9C87.2719 17.02 86.4519 17.9 85.3986 18.54C84.3586 19.1667 83.1519 19.48 81.7786 19.48C80.4319 19.48 79.2319 19.1667 78.1786 18.54C77.1386 17.9 76.3253 17.02 75.7386 15.9C75.1519 14.78 74.8586 13.48 74.8586 12C74.8586 10.5333 75.1519 9.23999 75.7386 8.11999C76.3386 6.99999 77.1586 6.11999 78.1986 5.47999C79.2386 4.83999 80.4386 4.51999 81.7986 4.51999C83.1719 4.51999 84.3786 4.83999 85.4186 5.47999C86.4586 6.11999 87.2719 6.99999 87.8586 8.11999C88.4586 9.23999 88.7586 10.5333 88.7586 12ZM84.3786 16.9C83.6453 17.3667 82.7853 17.6 81.7986 17.6C80.8253 17.6 79.9719 17.3667 79.2386 16.9C78.5053 16.4333 77.9319 15.78 77.5186 14.94C77.1186 14.1 76.9186 13.12 76.9186 12C76.9186 10.88 77.1186 9.89999 77.5186 9.05999C77.9319 8.21999 78.5053 7.57332 79.2386 7.11999C79.9719 6.65332 80.8253 6.41999 81.7986 6.41999C82.7853 6.41999 83.6453 6.65332 84.3786 7.11999C85.1119 7.57332 85.6786 8.21999 86.0786 9.05999C86.4919 9.89999 86.6986 10.88 86.6986 12C86.6986 13.1067 86.4919 14.08 86.0786 14.92C85.6786 15.76 85.1119 16.42 84.3786 16.9Z" fill="#09111F"/>
<path d="M100.818 6.57999H96.4777V19.24H94.5177V6.57999H90.1577V4.77999H100.818V6.57999Z" fill="#09111F"/>
<path d="M112.708 12.82H105.548V19.24H103.588V4.77999H105.548V11H112.708V4.77999H114.668V19.24H112.708V12.82Z" fill="#09111F"/>
</svg>
