<svg width="24" height="24" viewBox="0 0 24 24" fill="none" xmlns="http://www.w3.org/2000/svg">
  <mask id="mask0_1925_12382" style="mask-type:alpha" maskUnits="userSpaceOnUse" x="0" y="0" width="24" height="24">
    <rect width="24" height="24" fill="#D9D9D9" />
  </mask>
  <g mask="url(#mask0_1925_12382)">
    <path
      d="M17.6101 6.67221C16.6216 6.02885 15.9088 4.99901 15.686 3.79915C15.6382 3.53996 15.6115 3.27297 15.6115 3H12.4572L12.4522 15.6227C12.3992 17.0363 11.234 18.1709 9.80597 18.1709C9.36187 18.1709 8.944 18.0602 8.57583 17.8667C7.73181 17.4232 7.15426 16.54 7.15426 15.5235C7.15426 14.0635 8.34389 12.8756 9.8055 12.8756C10.0784 12.8756 10.3403 12.9206 10.5879 12.9978V9.7824C10.3315 9.74747 10.071 9.72587 9.8055 9.72587C6.60431 9.72587 4 12.3264 4 15.5235C4 17.4848 4.98116 19.2205 6.47867 20.2701C7.42164 20.9314 8.56893 21.3206 9.80597 21.3206C13.0072 21.3206 15.6115 18.7201 15.6115 15.5235V9.12249C16.8485 10.009 18.3644 10.5315 20 10.5315V7.38174C19.1192 7.38174 18.2986 7.12026 17.6101 6.67221Z"
      fill="#e1e5eb" />
  </g>
</svg>