<svg width="24" height="24" viewBox="0 0 24 24" fill="none" xmlns="http://www.w3.org/2000/svg">
  <mask id="mask0_1925_12376" style="mask-type:alpha" maskUnits="userSpaceOnUse" x="0" y="0" width="24" height="24">
    <rect width="24" height="24" fill="#D9D9D9" />
  </mask>
  <g mask="url(#mask0_1925_12376)">
    <path
      d="M19.9525 8.05356C19.9647 8.23022 19.9647 8.40687 19.9647 8.58516C19.9647 14.0176 15.8371 20.2828 8.28966 20.2828V20.2795C6.06013 20.2828 3.8769 19.6429 2 18.4364C2.32419 18.4755 2.65001 18.4951 2.97664 18.4959C4.82429 18.4975 6.61913 17.8763 8.07272 16.7326C6.31688 16.6992 4.77717 15.5521 4.23928 13.8775C4.85436 13.9964 5.48812 13.972 6.09181 13.8067C4.17753 13.4192 2.80033 11.7341 2.80033 9.77698C2.80033 9.75907 2.80033 9.74198 2.80033 9.72488C3.37071 10.0432 4.00934 10.2198 4.6626 10.2394C2.85964 9.03209 2.30388 6.62891 3.39265 4.74999C5.47593 7.31844 8.54966 8.87986 11.8493 9.04512C11.5186 7.61721 11.9703 6.12091 13.0364 5.11714C14.689 3.56061 17.2882 3.64039 18.8418 5.29543C19.7607 5.11389 20.6415 4.77604 21.4475 4.29736C21.1412 5.24903 20.5001 6.05742 19.6437 6.5711C20.457 6.47504 21.2517 6.25687 22 5.9239C21.4491 6.75102 20.7552 7.47149 19.9525 8.05356Z"
      fill="#e1e5eb" />
  </g>
</svg>