<svg width="156" height="24" viewBox="0 0 156 24" fill="none" xmlns="http://www.w3.org/2000/svg">
<path d="M14.5167 23.9541C13.5594 24.1064 12.5804 23.8773 11.7907 23.316C11.001 22.7548 10.4639 21.9063 10.295 20.9535L7.45301 4.26077C7.30037 3.3052 7.52993 2.32803 8.09221 1.5398C8.6545 0.751572 9.50451 0.215385 10.4591 0.0467716C11.4164 -0.105591 12.3954 0.123542 13.185 0.684799C13.9747 1.24606 14.5119 2.09451 14.6808 3.04734L17.5228 19.7425C17.6747 20.6977 17.4448 21.6742 16.8826 22.4619C16.3204 23.2496 15.4708 23.7854 14.5167 23.9541Z" fill="#0856DB"/>
<path d="M14.5167 23.9541C13.5594 24.1064 12.5804 23.8773 11.7907 23.316C11.001 22.7548 10.4639 21.9063 10.295 20.9535L7.45301 4.26077C7.30037 3.3052 7.52993 2.32803 8.09221 1.5398C8.6545 0.751572 9.50451 0.215385 10.4591 0.0467716C11.4164 -0.105591 12.3954 0.123542 13.185 0.684799C13.9747 1.24606 14.5119 2.09451 14.6808 3.04734L17.5228 19.7425C17.6747 20.6977 17.4448 21.6742 16.8826 22.4619C16.3204 23.2496 15.4708 23.7854 14.5167 23.9541Z" fill="black" fill-opacity="0.2"/>
<path d="M24.7055 23.9539C23.7482 24.1063 22.7692 23.8772 21.9796 23.3159C21.1899 22.7547 20.6527 21.9062 20.4838 20.9534L17.6424 4.26063C17.5584 3.78954 17.5685 3.3065 17.6721 2.8393C17.7757 2.3721 17.9708 1.92995 18.2462 1.53828C18.5216 1.14661 18.8718 0.813138 19.2768 0.557045C19.6817 0.300952 20.1334 0.127288 20.6058 0.0460392C21.5631 -0.106323 22.5421 0.122809 23.3318 0.684066C24.1215 1.24532 24.6586 2.09377 24.8276 3.0466L27.6695 19.7417C27.7532 20.2127 27.7429 20.6955 27.639 21.1625C27.5352 21.6295 27.34 22.0713 27.0646 22.4627C26.7891 22.8542 26.439 23.1874 26.0341 23.4433C25.6293 23.6992 25.1778 23.8727 24.7055 23.9539Z" fill="#0856DB"/>
<path d="M24.7055 23.9539C23.7482 24.1063 22.7692 23.8772 21.9796 23.3159C21.1899 22.7547 20.6527 21.9062 20.4838 20.9534L17.6424 4.26063C17.5584 3.78954 17.5685 3.3065 17.6721 2.8393C17.7757 2.3721 17.9708 1.92995 18.2462 1.53828C18.5216 1.14661 18.8718 0.813138 19.2768 0.557045C19.6817 0.300952 20.1334 0.127288 20.6058 0.0460392C21.5631 -0.106323 22.5421 0.122809 23.3318 0.684066C24.1215 1.24532 24.6586 2.09377 24.8276 3.0466L27.6695 19.7417C27.7532 20.2127 27.7429 20.6955 27.639 21.1625C27.5352 21.6295 27.34 22.0713 27.0646 22.4627C26.7891 22.8542 26.439 23.1874 26.0341 23.4433C25.6293 23.6992 25.1778 23.8727 24.7055 23.9539Z" fill="black" fill-opacity="0.2"/>
<path d="M2.2569 23.6702C1.37178 23.2743 0.679039 22.5457 0.329338 21.6427C-0.0203619 20.7397 0.0012694 19.7354 0.389527 18.8483L7.73697 2.19393C8.13352 1.31029 8.86361 0.618696 9.7684 0.269625C10.6732 -0.0794456 11.6795 -0.0577548 12.5683 0.329979C13.4534 0.725803 14.1462 1.45445 14.4959 2.35745C14.8456 3.26044 14.824 4.26473 14.4357 5.15189L7.04677 21.8062C6.85728 22.2445 6.5825 22.6409 6.23836 22.9723C5.89423 23.3038 5.48758 23.5638 5.04201 23.7372C4.59644 23.9106 4.12082 23.9939 3.64272 23.9824C3.16463 23.9709 2.69358 23.8648 2.2569 23.6702Z" fill="#0856DB"/>
<path d="M12.406 23.6702C11.5209 23.2743 10.8281 22.5457 10.4784 21.6427C10.1287 20.7397 10.1503 19.7354 10.5386 18.8483L17.886 2.19393C18.2826 1.31029 19.0127 0.618696 19.9175 0.269625C20.8223 -0.0794455 21.8286 -0.0577547 22.7174 0.329979C23.6025 0.725803 24.2953 1.45445 24.645 2.35744C24.9947 3.26044 24.973 4.26473 24.5848 5.15189L17.2367 21.8062C16.8419 22.6912 16.1121 23.3842 15.2068 23.7335C14.3015 24.0828 13.2945 24.06 12.406 23.6702Z" fill="#0856DB"/>
<path d="M22.5551 23.67C21.67 23.2742 20.9773 22.5455 20.6276 21.6425C20.2779 20.7395 20.2995 19.7353 20.6878 18.8481L28.0761 2.19377C28.4726 1.31028 29.2026 0.618801 30.1073 0.269742C31.0119 -0.0793177 32.0181 -0.057726 32.9069 0.32982C33.792 0.725644 34.4847 1.45429 34.8344 2.35729C35.1841 3.26028 35.1625 4.26457 34.7742 5.15173L27.3859 21.8061C27.1931 22.2465 26.9148 22.6445 26.5671 22.977C26.2193 23.3096 25.809 23.57 25.3598 23.7433C24.9107 23.9166 24.4315 23.9994 23.9501 23.9868C23.4687 23.9742 22.9946 23.8665 22.5551 23.67Z" fill="#0856DB"/>
<path fill-rule="evenodd" clip-rule="evenodd" d="M43.5018 19.49H41.0818V4.52999H43.4196L48.2318 16.2803L53.0441 4.52999H55.4219V19.49H53.0018V11.78C53.0018 11.2979 53.0085 10.8812 53.022 10.5304C53.0247 10.4622 53.0273 10.3955 53.0299 10.3303L49.3203 19.49H47.1433L43.4605 10.3882C43.4609 10.4096 43.4614 10.4313 43.4618 10.4531C43.4885 11.1766 43.5018 12.0458 43.5018 13.06V19.49ZM43.1118 8.85999C43.1447 9.0737 43.17 9.35834 43.1877 9.71392C43.1987 9.93515 43.2067 10.1838 43.2118 10.46C43.2385 11.18 43.2518 12.0467 43.2518 13.06V19.24H41.3318V4.77999H43.2518L48.2318 16.94L53.2118 4.77999H55.1719V19.24H53.2518V11.78C53.2518 11.3 53.2585 10.8867 53.2718 10.54C53.2849 10.2003 53.298 9.89901 53.311 9.63613C53.3113 9.63074 53.3116 9.62535 53.3118 9.61999C53.3252 9.33999 53.3452 9.07332 53.3719 8.81999L49.1518 19.24H47.3118L43.1118 8.85999ZM60.1153 19.49H57.5414L63.004 4.52999H65.5335L71.0168 19.49H68.4234L67.1234 15.89H61.3953L60.1153 19.49ZM61.2189 15.64H64.2589H67.2989L68.5989 19.24H70.6589L65.3589 4.77999H63.1789L57.8989 19.24H59.9389L61.2189 15.64ZM64.2538 7.98555L62.176 13.69H66.3606L64.2605 7.97614L64.2591 7.9709C64.2573 7.97574 64.2555 7.98071 64.2538 7.98555ZM64.13 7.56208C64.132 7.55505 64.1341 7.54803 64.1361 7.541C64.1368 7.53851 64.1375 7.53602 64.1383 7.53353C64.1453 7.50902 64.1522 7.4845 64.1589 7.45999L64.2589 7.05999C64.2722 7.16666 64.3055 7.29999 64.3589 7.45999C64.3655 7.47829 64.3721 7.4966 64.3785 7.5149L64.3805 7.52043C64.3844 7.53169 64.3884 7.54296 64.3922 7.55423C64.4319 7.66948 64.4674 7.78474 64.4989 7.89999L66.7189 13.94H61.8189L64.0189 7.89999C64.0598 7.78736 64.0969 7.67471 64.13 7.56208ZM77.3353 13.36V19.24H75.3753V13.36L70.4753 4.77999H72.6753L75.8953 10.56C75.9886 10.7333 76.0686 10.8933 76.1353 11.04C76.1699 11.1034 76.2045 11.1693 76.2391 11.2377C76.2845 11.3275 76.3299 11.4216 76.3753 11.52C76.44 11.4035 76.4859 11.3058 76.5129 11.227C76.5137 11.2246 76.5145 11.2223 76.5153 11.22L76.6353 10.94C76.6886 10.8467 76.762 10.72 76.8553 10.56L80.0553 4.77999H82.1953L77.3353 13.36ZM76.6379 10.4365L79.9079 4.52999H82.6242L77.5853 13.4259V19.49H75.1253V13.4263L70.0446 4.52999H72.8222L76.1154 10.4415C76.2091 10.6155 76.2905 10.7778 76.3591 10.9283C76.3608 10.9314 76.3625 10.9346 76.3643 10.9377L76.4111 10.8284L76.4182 10.816C76.4718 10.7222 76.5451 10.5956 76.6379 10.4365ZM87.0942 19.49H84.6342V4.52999H86.9786L93.9942 15.133V4.52999H96.4542V19.49H94.1098L87.0942 8.887V19.49ZM86.8442 8.05611V19.24H84.8842V4.77999H86.8442L94.2442 15.9639V4.77999H96.2042V19.24H94.2442L86.8442 8.05611ZM110.181 18.7541C109.097 19.4072 107.844 19.73 106.432 19.73C105.045 19.73 103.8 19.4067 102.704 18.7548L102.701 18.7529C101.621 18.0885 100.777 17.1744 100.17 16.016C99.5619 14.8546 99.2617 13.5135 99.2617 12C99.2617 10.4994 99.562 9.16512 100.17 8.00399L100.171 8.00193C100.791 6.84462 101.641 5.9312 102.721 5.26708C103.804 4.60014 105.051 4.26999 106.452 4.26999C107.865 4.26999 109.119 4.5999 110.203 5.26708C111.282 5.93137 112.126 6.84521 112.733 8.00323C113.355 9.16449 113.662 10.4991 113.662 12C113.662 13.5013 113.354 14.8423 112.733 16.0164C112.126 17.1754 111.274 18.09 110.181 18.7541ZM112.512 8.11999C111.925 6.99999 111.112 6.11999 110.072 5.47999C109.032 4.83999 107.825 4.51999 106.452 4.51999C105.092 4.51999 103.892 4.83999 102.852 5.47999C101.812 6.11999 100.992 6.99999 100.392 8.11999C99.805 9.23999 99.5117 10.5333 99.5117 12C99.5117 13.48 99.805 14.78 100.392 15.9C100.978 17.02 101.792 17.9 102.832 18.54C103.885 19.1667 105.085 19.48 106.432 19.48C107.805 19.48 109.012 19.1667 110.052 18.54C111.105 17.9 111.925 17.02 112.512 15.9C113.112 14.7667 113.412 13.4667 113.412 12C113.412 10.5333 113.112 9.23999 112.512 8.11999ZM110.507 9.17037L110.506 9.16748C110.125 8.36728 109.589 7.7587 108.9 7.33264L108.897 7.33092C108.209 6.89309 107.397 6.66999 106.452 6.66999C105.52 6.66999 104.714 6.89274 104.026 7.33091L104.023 7.33266C103.334 7.75892 102.791 8.36803 102.397 9.16897C102.016 9.96892 101.822 10.9104 101.822 12C101.822 13.0896 102.016 14.0311 102.397 14.831C102.791 15.6325 103.335 16.2492 104.026 16.6891C104.714 17.1272 105.52 17.35 106.452 17.35C107.397 17.35 108.208 17.1272 108.896 16.6901C109.588 16.2368 110.125 15.6133 110.506 14.8125L110.507 14.8096C110.901 14.0097 111.102 13.0753 111.102 12C111.102 10.9108 110.901 9.96992 110.507 9.17037ZM109.032 16.9C109.765 16.42 110.332 15.76 110.732 14.92C111.145 14.08 111.352 13.1067 111.352 12C111.352 10.88 111.145 9.89999 110.732 9.05999C110.332 8.21999 109.765 7.57332 109.032 7.11999C108.298 6.65332 107.438 6.41999 106.452 6.41999C105.478 6.41999 104.625 6.65332 103.892 7.11999C103.158 7.57332 102.585 8.21999 102.172 9.05999C101.772 9.89999 101.572 10.88 101.572 12C101.572 13.12 101.772 14.1 102.172 14.94C102.585 15.78 103.158 16.4333 103.892 16.9C104.625 17.3667 105.478 17.6 106.452 17.6C107.438 17.6 108.298 17.3667 109.032 16.9ZM126.528 18.7541C125.444 19.4072 124.191 19.73 122.779 19.73C121.391 19.73 120.147 19.4067 119.051 18.7548L119.048 18.7529C117.968 18.0885 117.124 17.1744 116.517 16.016C115.909 14.8546 115.609 13.5135 115.609 12C115.609 10.4994 115.909 9.16512 116.517 8.00399L116.518 8.00193C117.138 6.84462 117.988 5.9312 119.068 5.26708C120.151 4.60014 121.398 4.26999 122.799 4.26999C124.212 4.26999 125.465 4.5999 126.55 5.26708C127.629 5.93132 128.473 6.84507 129.079 8.00296C129.701 9.16428 130.009 10.499 130.009 12C130.009 13.5013 129.701 14.8423 129.08 16.0164C128.473 17.1754 127.621 18.09 126.528 18.7541ZM126.854 9.17037L126.853 9.16748C126.472 8.36728 125.936 7.7587 125.247 7.33264L125.244 7.33092C124.556 6.89309 123.744 6.66999 122.799 6.66999C121.867 6.66999 121.061 6.89275 120.373 7.33091L120.37 7.33266C119.68 7.75896 119.138 8.36815 118.743 9.1692C118.363 9.9691 118.169 10.9105 118.169 12C118.169 13.0895 118.363 14.0309 118.743 14.8308C119.138 15.6324 119.681 16.2491 120.373 16.6891C121.061 17.1272 121.867 17.35 122.799 17.35C123.744 17.35 124.555 17.1272 125.243 16.6899C125.935 16.2366 126.472 15.6132 126.853 14.8125L126.854 14.8096C127.248 14.0097 127.449 13.0753 127.449 12C127.449 10.9108 127.248 9.96993 126.854 9.17037ZM125.379 16.9C124.645 17.3667 123.785 17.6 122.799 17.6C121.825 17.6 120.972 17.3667 120.239 16.9C119.505 16.4333 118.932 15.78 118.519 14.94C118.119 14.1 117.919 13.12 117.919 12C117.919 10.88 118.119 9.89999 118.519 9.05999C118.932 8.21999 119.505 7.57332 120.239 7.11999C120.972 6.65332 121.825 6.41999 122.799 6.41999C123.785 6.41999 124.645 6.65332 125.379 7.11999C126.112 7.57332 126.679 8.21999 127.079 9.05999C127.492 9.89999 127.699 10.88 127.699 12C127.699 13.1067 127.492 14.08 127.079 14.92C126.679 15.76 126.112 16.42 125.379 16.9ZM137.478 6.57999V19.24H135.518V6.57999H131.158V4.77999H141.818V6.57999H137.478ZM135.268 6.82999H130.908V4.52999H142.068V6.82999H137.728V19.49H135.268V6.82999ZM146.798 19.49H144.338V4.52999H146.798V10.75H153.458V4.52999H155.918V19.49H153.458V13.07H146.798V19.49ZM153.708 12.82V19.24H155.668V4.77999H153.708V11H146.548V4.77999H144.588V19.24H146.548V12.82H153.708ZM128.859 15.9C129.459 14.7667 129.759 13.4667 129.759 12C129.759 10.5333 129.459 9.23999 128.859 8.11999C128.272 6.99999 127.459 6.11999 126.419 5.47999C125.379 4.83999 124.172 4.51999 122.799 4.51999C121.439 4.51999 120.239 4.83999 119.199 5.47999C118.159 6.11999 117.339 6.99999 116.739 8.11999C116.152 9.23999 115.859 10.5333 115.859 12C115.859 13.48 116.152 14.78 116.739 15.9C117.325 17.02 118.139 17.9 119.179 18.54C120.232 19.1667 121.432 19.48 122.779 19.48C124.152 19.48 125.359 19.1667 126.399 18.54C127.452 17.9 128.272 17.02 128.859 15.9Z" fill="#09111F"/>
<path d="M43.1118 8.85999C43.1447 9.0737 43.17 9.35834 43.1877 9.71392C43.1987 9.93515 43.2067 10.1838 43.2118 10.46C43.2385 11.18 43.2518 12.0467 43.2518 13.06V19.24H41.3318V4.77999H43.2518L48.2318 16.94L53.2118 4.77999H55.1719V19.24H53.2518V11.78C53.2518 11.3 53.2585 10.8867 53.2718 10.54C53.2849 10.2003 53.298 9.89901 53.311 9.63613L53.3118 9.61999C53.3252 9.33999 53.3452 9.07332 53.3719 8.81999L49.1518 19.24H47.3118L43.1118 8.85999Z" fill="#09111F"/>
<path fill-rule="evenodd" clip-rule="evenodd" d="M68.5989 19.24L67.2989 15.64H64.2589H61.2189L59.9389 19.24H57.8989L63.1789 4.77999H65.3589L70.6589 19.24H68.5989ZM64.13 7.56208L64.1361 7.541L64.1383 7.53353C64.1453 7.50902 64.1522 7.4845 64.1589 7.45999L64.2589 7.05999C64.2722 7.16666 64.3055 7.29999 64.3589 7.45999L64.3785 7.5149L64.3805 7.52043L64.3922 7.55423C64.4319 7.66948 64.4674 7.78474 64.4989 7.89999L66.7189 13.94H61.8189L64.0189 7.89999C64.0598 7.78736 64.0969 7.67471 64.13 7.56208Z" fill="#09111F"/>
<path d="M75.8953 10.56L72.6753 4.77999H70.4753L75.3753 13.36V19.24H77.3353V13.36L82.1953 4.77999H80.0553L76.8553 10.56C76.762 10.72 76.6886 10.8467 76.6353 10.94L76.5153 11.22L76.5129 11.227C76.4859 11.3058 76.44 11.4035 76.3753 11.52C76.3299 11.4216 76.2845 11.3275 76.2391 11.2377C76.2045 11.1693 76.1699 11.1034 76.1353 11.04C76.0686 10.8933 75.9886 10.7333 75.8953 10.56Z" fill="#09111F"/>
<path d="M94.2442 19.24L86.8442 8.05611V19.24H84.8842V4.77999H86.8442L94.2442 15.9639V4.77999H96.2042V19.24H94.2442Z" fill="#09111F"/>
<path fill-rule="evenodd" clip-rule="evenodd" d="M112.512 8.11999C111.925 6.99999 111.112 6.11999 110.072 5.47999C109.032 4.83999 107.825 4.51999 106.452 4.51999C105.092 4.51999 103.892 4.83999 102.852 5.47999C101.812 6.11999 100.992 6.99999 100.392 8.11999C99.805 9.23999 99.5117 10.5333 99.5117 12C99.5117 13.48 99.805 14.78 100.392 15.9C100.978 17.02 101.792 17.9 102.832 18.54C103.885 19.1667 105.085 19.48 106.432 19.48C107.805 19.48 109.012 19.1667 110.052 18.54C111.105 17.9 111.925 17.02 112.512 15.9C113.112 14.7667 113.412 13.4667 113.412 12C113.412 10.5333 113.112 9.23999 112.512 8.11999ZM109.032 16.9C109.765 16.42 110.332 15.76 110.732 14.92C111.145 14.08 111.352 13.1067 111.352 12C111.352 10.88 111.145 9.89999 110.732 9.05999C110.332 8.21999 109.765 7.57332 109.032 7.11999C108.298 6.65332 107.438 6.41999 106.452 6.41999C105.478 6.41999 104.625 6.65332 103.892 7.11999C103.158 7.57332 102.585 8.21999 102.172 9.05999C101.772 9.89999 101.572 10.88 101.572 12C101.572 13.12 101.772 14.1 102.172 14.94C102.585 15.78 103.158 16.4333 103.892 16.9C104.625 17.3667 105.478 17.6 106.452 17.6C107.438 17.6 108.298 17.3667 109.032 16.9Z" fill="#09111F"/>
<path fill-rule="evenodd" clip-rule="evenodd" d="M129.759 12C129.759 13.4667 129.459 14.7667 128.859 15.9C128.272 17.02 127.452 17.9 126.399 18.54C125.359 19.1667 124.152 19.48 122.779 19.48C121.432 19.48 120.232 19.1667 119.179 18.54C118.139 17.9 117.325 17.02 116.739 15.9C116.152 14.78 115.859 13.48 115.859 12C115.859 10.5333 116.152 9.23999 116.739 8.11999C117.339 6.99999 118.159 6.11999 119.199 5.47999C120.239 4.83999 121.439 4.51999 122.799 4.51999C124.172 4.51999 125.379 4.83999 126.419 5.47999C127.459 6.11999 128.272 6.99999 128.859 8.11999C129.459 9.23999 129.759 10.5333 129.759 12ZM125.379 16.9C124.645 17.3667 123.785 17.6 122.799 17.6C121.825 17.6 120.972 17.3667 120.239 16.9C119.505 16.4333 118.932 15.78 118.519 14.94C118.119 14.1 117.919 13.12 117.919 12C117.919 10.88 118.119 9.89999 118.519 9.05999C118.932 8.21999 119.505 7.57332 120.239 7.11999C120.972 6.65332 121.825 6.41999 122.799 6.41999C123.785 6.41999 124.645 6.65332 125.379 7.11999C126.112 7.57332 126.679 8.21999 127.079 9.05999C127.492 9.89999 127.699 10.88 127.699 12C127.699 13.1067 127.492 14.08 127.079 14.92C126.679 15.76 126.112 16.42 125.379 16.9Z" fill="#09111F"/>
<path d="M141.818 6.57999H137.478V19.24H135.518V6.57999H131.158V4.77999H141.818V6.57999Z" fill="#09111F"/>
<path d="M153.708 12.82H146.548V19.24H144.588V4.77999H146.548V11H153.708V4.77999H155.668V19.24H153.708V12.82Z" fill="#09111F"/>
</svg>
